<svg width="21" height="21" viewBox="0 0 21 21" fill="none" xmlns="http://www.w3.org/2000/svg">
<g clip-path="url(#clip0_94_1432)">
<path d="M1.16667 21C0.836115 21 0.559226 20.888 0.336004 20.664C0.112782 20.44 0.000781801 20.1631 4.02298e-06 19.8333C-0.000773755 19.5036 0.111226 19.2267 0.336004 19.0027C0.560782 18.7787 0.837671 18.6667 1.16667 18.6667H2.33334V1.16667C2.33334 0.836111 2.44534 0.559222 2.66934 0.336C2.89334 0.112778 3.17023 0.000777778 3.5 0H12.8333C13.1639 0 13.4412 0.112 13.6652 0.336C13.8892 0.56 14.0008 0.836889 14 1.16667H17.5C17.8306 1.16667 18.1078 1.27867 18.3318 1.50267C18.5558 1.72667 18.6674 2.00356 18.6667 2.33333V18.6667H19.8333C20.1639 18.6667 20.4412 18.7787 20.6652 19.0027C20.8892 19.2267 21.0008 19.5036 21 19.8333C20.9992 20.1631 20.8872 20.4404 20.664 20.6652C20.4408 20.8899 20.1639 21.0016 19.8333 21H17.5C17.1694 21 16.8926 20.888 16.6693 20.664C16.4461 20.44 16.3341 20.1631 16.3333 19.8333V3.5H14V19.8333C14 20.1639 13.888 20.4412 13.664 20.6652C13.44 20.8892 13.1631 21.0008 12.8333 21H1.16667ZM10.1652 9.66933C9.94117 9.44533 9.66389 9.33333 9.33334 9.33333C9.00278 9.33333 8.72589 9.44533 8.50267 9.66933C8.27945 9.89333 8.16745 10.1702 8.16667 10.5C8.16589 10.8298 8.27789 11.1071 8.50267 11.3318C8.72745 11.5566 9.00434 11.6682 9.33334 11.6667C9.66234 11.6651 9.93962 11.5531 10.1652 11.3307C10.3907 11.1082 10.5023 10.8313 10.5 10.5C10.4977 10.1687 10.3857 9.89178 10.164 9.66933M4.66667 18.6667H11.6667V2.33333H4.66667V18.6667Z" fill="#ECEDE8"/>
</g>
<defs>
<clipPath id="clip0_94_1432">
<rect width="21" height="21" fill="white"/>
</clipPath>
</defs>
</svg>
