<svg width="19" height="15" viewBox="0 0 19 15" fill="none" xmlns="http://www.w3.org/2000/svg">
<g clip-path="url(#clip0_94_1424)">
<path d="M6 11C7.65625 11 9 12.3438 9 14C9 14.5531 8.55313 15 8 15H1C0.446875 15 0 14.5531 0 14C0 12.3438 1.34375 11 3 11H6ZM17 0C18.1031 0 19 0.896875 19 2V11C19 12.0344 18.2125 12.8875 17.2031 12.9906L17 13H10.4031C10.2437 12.2437 9.89375 11.5594 9.4 11H11V10C11 9.44687 11.4469 9 12 9H15C15.5531 9 16 9.44687 16 10V11H17V2H6V3.79063C5.5375 3.60313 5.03125 3.5 4.5 3.5C4.33125 3.5 4.1625 3.50938 4 3.53125V2C4 0.896875 4.89688 0 6 0H17ZM4.5 10C3.11875 10 2 8.88125 2 7.5C2 6.11875 3.11875 5 4.5 5C5.88125 5 7 6.11875 7 7.5C7 8.88125 5.88125 10 4.5 10Z" fill="#ECEDE8"/>
</g>
<defs>
<clipPath id="clip0_94_1424">
<rect width="19" height="15" fill="white"/>
</clipPath>
</defs>
</svg>
